# xmcd CD database file
# Generated: sam déc 7 12:49:41 2002 by KSCD
# 
# Track frame offsets:
#       182
#       18455
#       30365
#       43970
#       61130
#       77057
#       90982
#       110380
#       124347
#       148125
#
# Disc length: 2195 seconds
#
# Revision: 1
# Processed by: cddbd v1.4PL0 Copyright (c) Steve Scherf et al.
# Submitted via: Kscd 1.3.3
#
DISCID=7e08910a
DTITLE=Jules Marquard - 3 petites fermes
DYEAR=1900
DGENRE=
TTITLE0=Trois petites fermes
TTITLE1=Elle bosssait comme un homme
TTITLE2=J'suis le marquard
TTITLE3=Rurz rock
TTITLE4=Le grand père
TTITLE5=Samedi dimanche et fêtes (SDF)
TTITLE6=Pour les vacances
TTITLE7=Le dernier paysan
TTITLE8=Du matin juqu'au soir
TTITLE9=Le rap à Roger
EXTD=
EXTT0=
EXTT1=
EXTT2=
EXTT3=
EXTT4=
EXTT5=
EXTT6=
EXTT7=
EXTT8=
EXTT9=
PLAYORDER=
